<mxfile host="app.diagrams.net" modified="2021-02-06T15:06:05.398Z" agent="5.0 (Windows NT 10.0; Win64; x64) AppleWebKit/537.36 (KHTML, like Gecko) Chrome/88.0.4324.146 Safari/537.36" etag="h1N8zaWNPVzwzqXa-yvy" version="14.2.9" type="github">
  <diagram name="Page-1" id="97916047-d0de-89f5-080d-49f4d83e522f">
    <mxGraphModel dx="1483" dy="840" grid="1" gridSize="10" guides="1" tooltips="1" connect="1" arrows="1" fold="1" page="1" pageScale="1.5" pageWidth="1169" pageHeight="827" background="#ffffff" math="0" shadow="1">
      <root>
        <mxCell id="0" />
        <mxCell id="1" parent="0" />
        <mxCell id="2" value="ShareIO" style="rounded=1;fillColor=#dae8fc;shadow=1;fontStyle=1;fontSize=14;strokeColor=#6c8ebf;" parent="1" vertex="1">
          <mxGeometry x="672" y="90" width="200" height="60" as="geometry" />
        </mxCell>
        <mxCell id="euh-7XmCEyjTG5hrUnki-56" value="" style="edgeStyle=orthogonalEdgeStyle;rounded=0;orthogonalLoop=1;jettySize=auto;html=1;" edge="1" parent="1" target="2">
          <mxGeometry relative="1" as="geometry">
            <mxPoint x="772" y="250" as="sourcePoint" />
          </mxGeometry>
        </mxCell>
        <mxCell id="3" value="TypesÂ " style="rounded=1;fillColor=#10739E;strokeColor=none;shadow=1;gradientColor=none;fontStyle=1;fontColor=#FFFFFF;fontSize=14;" parent="1" vertex="1">
          <mxGeometry x="662" y="230" width="220" height="60" as="geometry" />
        </mxCell>
        <mxCell id="8" value="Medium API" style="rounded=1;fillColor=#fa6800;strokeColor=#C73500;shadow=1;fontStyle=1;fontSize=14;fontColor=#ffffff;" parent="1" vertex="1">
          <mxGeometry x="282" y="610" width="200" height="60" as="geometry" />
        </mxCell>
        <mxCell id="13" value="Facebook API" style="rounded=1;fillColor=#008a00;strokeColor=#005700;shadow=1;fontStyle=1;fontSize=14;fontColor=#ffffff;" parent="1" vertex="1">
          <mxGeometry x="510" y="610" width="200" height="60" as="geometry" />
        </mxCell>
        <mxCell id="18" value="Linkdin API" style="rounded=1;fillColor=#fa6800;strokeColor=#C73500;shadow=1;fontStyle=1;fontSize=14;fontColor=#ffffff;" parent="1" vertex="1">
          <mxGeometry x="760" y="610" width="200" height="60" as="geometry" />
        </mxCell>
        <mxCell id="23" value="Twitter API" style="rounded=1;fillColor=#008a00;strokeColor=#005700;shadow=1;fontStyle=1;fontSize=14;fontColor=#ffffff;" parent="1" vertex="1">
          <mxGeometry x="1020" y="615.5" width="200" height="60" as="geometry" />
        </mxCell>
        <mxCell id="29" value="" style="edgeStyle=elbowEdgeStyle;elbow=vertical;strokeWidth=4;endArrow=block;endFill=1;fontStyle=1;strokeColor=#23445D;entryX=0.5;entryY=0;entryDx=0;entryDy=0;" parent="1" source="2" target="3" edge="1">
          <mxGeometry x="22" y="165.5" width="100" height="100" as="geometry">
            <mxPoint x="22" y="265.5" as="sourcePoint" />
            <mxPoint x="772" y="260" as="targetPoint" />
          </mxGeometry>
        </mxCell>
        <mxCell id="34" value="" style="edgeStyle=elbowEdgeStyle;elbow=vertical;strokeWidth=4;endArrow=block;endFill=1;fontStyle=1;strokeColor=#23445D;exitX=0.5;exitY=1;exitDx=0;exitDy=0;" parent="1" source="euh-7XmCEyjTG5hrUnki-55" target="8" edge="1">
          <mxGeometry x="22" y="165.5" width="100" height="100" as="geometry">
            <mxPoint x="840" y="440" as="sourcePoint" />
            <mxPoint x="122" y="165.5" as="targetPoint" />
            <Array as="points">
              <mxPoint x="552" y="555.5" />
            </Array>
          </mxGeometry>
        </mxCell>
        <mxCell id="37" value="" style="edgeStyle=elbowEdgeStyle;elbow=vertical;strokeWidth=4;endArrow=block;endFill=1;fontStyle=1;strokeColor=#23445D;exitX=0.5;exitY=1;exitDx=0;exitDy=0;" parent="1" source="euh-7XmCEyjTG5hrUnki-55" target="23" edge="1">
          <mxGeometry x="22" y="165.5" width="100" height="100" as="geometry">
            <mxPoint x="870" y="520" as="sourcePoint" />
            <mxPoint x="122" y="165.5" as="targetPoint" />
            <Array as="points">
              <mxPoint x="972" y="555.5" />
            </Array>
          </mxGeometry>
        </mxCell>
        <mxCell id="54" value="" style="edgeStyle=elbowEdgeStyle;elbow=vertical;strokeWidth=4;endArrow=block;endFill=1;fontStyle=1;strokeColor=#23445D;exitX=0.5;exitY=1;exitDx=0;exitDy=0;" parent="1" source="euh-7XmCEyjTG5hrUnki-55" target="13" edge="1">
          <mxGeometry x="22" y="165.5" width="100" height="100" as="geometry">
            <mxPoint x="730" y="390" as="sourcePoint" />
            <mxPoint x="122" y="165.5" as="targetPoint" />
            <Array as="points">
              <mxPoint x="652" y="555.5" />
            </Array>
          </mxGeometry>
        </mxCell>
        <mxCell id="55" value="" style="edgeStyle=elbowEdgeStyle;elbow=vertical;strokeWidth=4;endArrow=block;endFill=1;fontStyle=1;strokeColor=#23445D;entryX=0.5;entryY=0;entryDx=0;entryDy=0;exitX=0.5;exitY=1;exitDx=0;exitDy=0;" parent="1" target="18" edge="1" source="euh-7XmCEyjTG5hrUnki-55">
          <mxGeometry x="22" y="165.5" width="100" height="100" as="geometry">
            <mxPoint x="770" y="410" as="sourcePoint" />
            <mxPoint x="122" y="165.5" as="targetPoint" />
            <Array as="points">
              <mxPoint x="830" y="560" />
              <mxPoint x="840" y="580" />
              <mxPoint x="942" y="555.5" />
            </Array>
          </mxGeometry>
        </mxCell>
        <mxCell id="dlfzERGhH-uwtVizK1_M-57" value="Instagram API" style="rounded=1;fillColor=#e51400;strokeColor=#B20000;shadow=1;fontStyle=1;fontSize=14;fontColor=#ffffff;" parent="1" vertex="1">
          <mxGeometry x="1260" y="615.5" width="200" height="60" as="geometry" />
        </mxCell>
        <mxCell id="dlfzERGhH-uwtVizK1_M-58" value="" style="edgeStyle=elbowEdgeStyle;elbow=vertical;strokeWidth=4;endArrow=block;endFill=1;fontStyle=1;strokeColor=#23445D;exitX=0.5;exitY=1;exitDx=0;exitDy=0;" parent="1" source="euh-7XmCEyjTG5hrUnki-55" target="dlfzERGhH-uwtVizK1_M-57" edge="1">
          <mxGeometry x="250" y="165.5" width="100" height="100" as="geometry">
            <mxPoint x="780" y="470" as="sourcePoint" />
            <mxPoint x="350" y="165.5" as="targetPoint" />
            <Array as="points">
              <mxPoint x="1200" y="555.5" />
            </Array>
          </mxGeometry>
        </mxCell>
        <mxCell id="euh-7XmCEyjTG5hrUnki-55" value="GMAIL API" style="rounded=1;fillColor=#008a00;strokeColor=#005700;shadow=1;fontStyle=1;fontColor=#ffffff;fontSize=14;" vertex="1" parent="1">
          <mxGeometry x="662" y="340" width="220" height="60" as="geometry" />
        </mxCell>
        <mxCell id="euh-7XmCEyjTG5hrUnki-58" value="" style="endArrow=classic;html=1;entryX=0.5;entryY=0;entryDx=0;entryDy=0;exitX=0.5;exitY=1;exitDx=0;exitDy=0;" edge="1" parent="1" source="3" target="euh-7XmCEyjTG5hrUnki-55">
          <mxGeometry width="50" height="50" relative="1" as="geometry">
            <mxPoint x="830" y="360" as="sourcePoint" />
            <mxPoint x="880" y="310" as="targetPoint" />
          </mxGeometry>
        </mxCell>
      </root>
    </mxGraphModel>
  </diagram>
</mxfile>
